<?xml version="1.0" encoding="UTF-8"?>
<svg xmlns="http://www.w3.org/2000/svg" xmlns:xlink="http://www.w3.org/1999/xlink" width="48pt" height="48pt" viewBox="0 0 48 48" version="1.1">
<g id="surface13850204">
<path style=" stroke:none;fill-rule:nonzero;fill:rgb(95.686275%,31.764706%,11.764706%);fill-opacity:1;" d="M 24 4 C 12.953125 4 4 12.953125 4 24 C 4 35.046875 12.953125 44 24 44 C 35.046875 44 44 35.046875 44 24 C 44 12.953125 35.046875 4 24 4 Z M 24 4 "/>
<path style=" stroke:none;fill-rule:nonzero;fill:rgb(100%,100%,100%);fill-opacity:1;" d="M 34 19 L 36 19 L 36 27 L 34 27 Z M 34 19 "/>
<path style=" stroke:none;fill-rule:nonzero;fill:rgb(100%,100%,100%);fill-opacity:1;" d="M 31 22 L 39 22 L 39 24 L 31 24 Z M 27.816406 22.199219 L 27.765625 22 L 19 22 L 19 25 L 24.910156 25 C 24.433594 27.835938 21.972656 30 19 30 C 15.6875 30 13 27.3125 13 24 C 13 20.6875 15.6875 18 19 18 C 20.5 18 21.867188 18.554688 22.921875 19.464844 L 25.070312 17.359375 C 23.472656 15.894531 21.339844 15 19 15 C 14.027344 15 10 19.027344 10 24 C 10 28.972656 14.027344 33 19 33 C 23.972656 33 28 28.972656 28 24 C 28 23.382812 27.933594 22.78125 27.816406 22.199219 Z M 27.816406 22.199219 "/>
</g>
</svg>
